<svg width="20" height="16" viewBox="0 0 20 16" fill="none" xmlns="http://www.w3.org/2000/svg">
<path d="M0 2.66667C0 1.95942 0.263392 1.28115 0.732233 0.781048C1.20107 0.280951 1.83696 0 2.5 0H17.5C18.163 0 18.7989 0.280951 19.2678 0.781048C19.7366 1.28115 20 1.95942 20 2.66667V13.3333C20 14.0406 19.7366 14.7189 19.2678 15.219C18.7989 15.719 18.163 16 17.5 16H2.5C1.83696 16 1.20107 15.719 0.732233 15.219C0.263392 14.7189 0 14.0406 0 13.3333V2.66667ZM2.5 1.33333C2.16848 1.33333 1.85054 1.47381 1.61612 1.72386C1.3817 1.97391 1.25 2.31304 1.25 2.66667V4H18.75V2.66667C18.75 2.31304 18.6183 1.97391 18.3839 1.72386C18.1495 1.47381 17.8315 1.33333 17.5 1.33333H2.5ZM18.75 6.66667H1.25V13.3333C1.25 13.687 1.3817 14.0261 1.61612 14.2761C1.85054 14.5262 2.16848 14.6667 2.5 14.6667H17.5C17.8315 14.6667 18.1495 14.5262 18.3839 14.2761C18.6183 14.0261 18.75 13.687 18.75 13.3333V6.66667Z" fill="#ABABAB"/>
<path d="M2.5 10.6668C2.5 10.3132 2.6317 9.97407 2.86612 9.72402C3.10054 9.47397 3.41848 9.3335 3.75 9.3335H5C5.33152 9.3335 5.64946 9.47397 5.88388 9.72402C6.1183 9.97407 6.25 10.3132 6.25 10.6668V12.0002C6.25 12.3538 6.1183 12.6929 5.88388 12.943C5.64946 13.193 5.33152 13.3335 5 13.3335H3.75C3.41848 13.3335 3.10054 13.193 2.86612 12.943C2.6317 12.6929 2.5 12.3538 2.5 12.0002V10.6668Z" fill="#ABABAB"/>
</svg>
