<svg width="18" height="14" viewBox="0 0 18 14" fill="none" xmlns="http://www.w3.org/2000/svg">
<path d="M2.63225 11.6888H15.4894C15.6315 11.6888 15.7677 11.6218 15.8682 11.5024C15.9687 11.3831 16.0251 11.2212 16.0251 11.0525C16.0251 10.8837 15.9687 10.7218 15.8682 10.6025C15.7677 10.4831 15.6315 10.4161 15.4894 10.4161H2.63225C2.49017 10.4161 2.35391 10.4831 2.25345 10.6025C2.15298 10.7218 2.09654 10.8837 2.09654 11.0525C2.09654 11.2212 2.15298 11.3831 2.25345 11.5024C2.35391 11.6218 2.49017 11.6888 2.63225 11.6888Z" fill="#ABABAB"/>
<path d="M3.70368 13.5979H14.418C14.56 13.5979 14.6963 13.5309 14.7968 13.4115C14.8972 13.2922 14.9537 13.1303 14.9537 12.9616C14.9537 12.7928 14.8972 12.6309 14.7968 12.5116C14.6963 12.3922 14.56 12.3252 14.418 12.3252H3.70368C3.5616 12.3252 3.42534 12.3922 3.32488 12.5116C3.22441 12.6309 3.16797 12.7928 3.16797 12.9616C3.16797 13.1303 3.22441 13.2922 3.32488 13.4115C3.42534 13.5309 3.5616 13.5979 3.70368 13.5979Z" fill="#ABABAB"/>
<path d="M0.974854 6.99902H1.51057C2.0787 6.99976 2.62338 7.26818 3.02511 7.74538C3.42684 8.22259 3.6528 8.86961 3.65342 9.54448V9.99902H2.04628C1.76212 9.99902 1.4896 9.86493 1.28867 9.62625C1.08774 9.38757 0.974854 8.83657 0.974854 8.49902V6.99902Z" fill="#ABABAB"/>
<path d="M16.4918 6.26852H17.0251V4.13519H16.4918C15.6434 4.13422 14.83 3.79676 14.2301 3.19686C13.6302 2.59695 13.2927 1.78358 13.2918 0.935189V0.401855H4.75842V0.935189C4.75745 1.78358 4.42 2.59695 3.82009 3.19686C3.22018 3.79676 2.40681 4.13422 1.55842 4.13519H1.02509V6.26852H1.55842C2.40681 6.26949 3.22018 6.60695 3.82009 7.20685C4.42 7.80676 4.75745 8.62013 4.75842 9.46852V10.0019H13.2918V9.46852C13.2927 8.62013 13.6302 7.80676 14.2301 7.20685C14.83 6.60695 15.6434 6.26949 16.4918 6.26852V6.26852ZM9.02509 8.40185C8.39219 8.40185 7.7735 8.21418 7.24726 7.86256C6.72102 7.51094 6.31087 7.01117 6.06867 6.42644C5.82647 5.84172 5.7631 5.19831 5.88657 4.57757C6.01005 3.95683 6.31482 3.38664 6.76234 2.93911C7.20987 2.49159 7.78006 2.18682 8.4008 2.06334C9.02154 1.93987 9.66495 2.00324 10.2497 2.24544C10.8344 2.48764 11.3342 2.89779 11.6858 3.42403C12.0374 3.95027 12.2251 4.56895 12.2251 5.20186C12.2241 6.05025 11.8867 6.86362 11.2868 7.46352C10.6868 8.06343 9.87348 8.40088 9.02509 8.40185V8.40185Z" fill="#ABABAB"/>
<path d="M9.02469 8.00186C10.3502 8.00186 11.4247 6.74825 11.4247 5.20186C11.4247 3.65546 10.3502 2.40186 9.02469 2.40186C7.69921 2.40186 6.62469 3.65546 6.62469 5.20186C6.62469 6.74825 7.69921 8.00186 9.02469 8.00186Z" fill="#ABABAB"/>
<path d="M14.3584 9.46852V10.0019H15.9584C16.2413 10.0019 16.5126 9.88947 16.7127 9.68944C16.9127 9.4894 17.0251 9.21809 17.0251 8.93519V7.33519H16.4918C15.9261 7.33581 15.3839 7.56077 14.9839 7.96071C14.584 8.36065 14.359 8.90292 14.3584 9.46852ZM16.4918 3.06852H17.0251V1.46852C17.0251 1.18562 16.9127 0.914314 16.7127 0.714275C16.5126 0.514236 16.2413 0.401855 15.9584 0.401855H14.3584V0.935189C14.359 1.50079 14.584 2.04306 14.9839 2.443C15.3839 2.84294 15.9261 3.0679 16.4918 3.06852V3.06852ZM3.69175 0.935189V0.401855H2.09175C1.80885 0.401855 1.53754 0.514236 1.3375 0.714275C1.13747 0.914314 1.02509 1.18562 1.02509 1.46852V3.06852H1.55842C2.12402 3.0679 2.66629 2.84294 3.06623 2.443C3.46617 2.04306 3.69113 1.50079 3.69175 0.935189V0.935189Z" fill="#ABABAB"/>
</svg>
