<svg width="12" height="20" viewBox="0 0 12 20" fill="none" xmlns="http://www.w3.org/2000/svg">
<path d="M12 13.2254C12 14.3638 11.5734 15.3441 10.7203 16.1663C9.86717 16.9885 8.75895 17.4963 7.39565 17.6897V19.6429C7.39565 19.747 7.35707 19.8326 7.2799 19.8996C7.20273 19.9665 7.10413 20 6.98409 20H5.24781C5.13635 20 5.03989 19.9647 4.95844 19.894C4.87698 19.8233 4.83625 19.7396 4.83625 19.6429V17.6897C4.27036 17.6228 3.72375 17.5074 3.19644 17.3438C2.66912 17.1801 2.23398 17.0145 1.89101 16.8471C1.54805 16.6797 1.2308 16.5011 0.939277 16.3114C0.647754 16.1217 0.448404 15.9821 0.341227 15.8929C0.234049 15.8036 0.159025 15.7366 0.116154 15.692C-0.0296078 15.5357 -0.038182 15.3832 0.0904311 15.2344L1.41515 13.7277C1.47516 13.6533 1.57377 13.6086 1.71096 13.5938C1.83957 13.5789 1.94246 13.6124 2.01963 13.6942L2.04535 13.7165C3.01423 14.4531 4.056 14.9182 5.17065 15.1116C5.48789 15.1711 5.80514 15.2009 6.12238 15.2009C6.81689 15.2009 7.42781 15.0409 7.95512 14.721C8.48243 14.401 8.74609 13.9472 8.74609 13.3594C8.74609 13.151 8.68178 12.9539 8.55317 12.7679C8.42456 12.5818 8.28094 12.4256 8.12232 12.2991C7.96369 12.1726 7.7129 12.0331 7.36993 11.8806C7.02696 11.7281 6.74401 11.609 6.52108 11.5234C6.29815 11.4379 5.95519 11.317 5.49218 11.1607C5.15779 11.0417 4.89413 10.9487 4.70121 10.8817C4.50829 10.8147 4.24463 10.7161 3.91024 10.5859C3.57585 10.4557 3.3079 10.3404 3.10641 10.24C2.90491 10.1395 2.66269 10.0074 2.37974 9.84375C2.09679 9.68006 1.86743 9.52195 1.69166 9.36942C1.51589 9.21689 1.3294 9.0346 1.1322 8.82255C0.93499 8.61049 0.782798 8.39472 0.67562 8.17522C0.568443 7.95573 0.478414 7.70833 0.405533 7.43304C0.332652 7.15774 0.296212 6.86756 0.296212 6.5625C0.296212 5.53571 0.716348 4.63542 1.55662 3.86161C2.39689 3.0878 3.4901 2.58929 4.83625 2.36607V0.357143C4.83625 0.260417 4.87698 0.176711 4.95844 0.106027C5.03989 0.0353423 5.13635 0 5.24781 0H6.98409C7.10413 0 7.20273 0.0334821 7.2799 0.100446C7.35707 0.167411 7.39565 0.252976 7.39565 0.357143V2.32143C7.88438 2.36607 8.35811 2.45164 8.81683 2.57812C9.27555 2.70461 9.64852 2.82924 9.93576 2.95201C10.223 3.07478 10.4952 3.21429 10.7525 3.37054C11.0097 3.52679 11.1769 3.63467 11.254 3.6942C11.3312 3.75372 11.3955 3.8058 11.447 3.85045C11.5927 3.98438 11.6142 4.12574 11.5113 4.27455L10.4695 5.90402C10.4009 6.01562 10.3023 6.07515 10.1737 6.08259C10.0537 6.10491 9.9379 6.07887 9.82644 6.00446C9.80072 5.98214 9.73855 5.9375 9.63995 5.87054C9.54135 5.80357 9.37415 5.70499 9.13836 5.57478C8.90257 5.44457 8.65177 5.32552 8.38597 5.21763C8.12017 5.10975 7.80078 5.01302 7.42781 4.92746C7.05483 4.84189 6.68828 4.79911 6.32816 4.79911C5.51362 4.79911 4.84911 4.95908 4.33466 5.27902C3.82021 5.59896 3.56298 6.0119 3.56298 6.51786C3.56298 6.71131 3.59942 6.88988 3.6723 7.05357C3.74519 7.21726 3.87166 7.37165 4.05171 7.51674C4.23177 7.66183 4.40111 7.7846 4.55973 7.88505C4.71836 7.98549 4.95844 8.10082 5.27997 8.23103C5.6015 8.36123 5.86087 8.46168 6.05808 8.53237C6.25528 8.60305 6.55538 8.70536 6.95837 8.83929C7.4128 8.9881 7.76006 9.10528 8.00013 9.19085C8.24021 9.27641 8.56603 9.40662 8.97759 9.58147C9.38916 9.75632 9.71283 9.91444 9.94862 10.0558C10.1844 10.1972 10.4502 10.3832 10.746 10.6138C11.0418 10.8445 11.269 11.0807 11.4277 11.3225C11.5863 11.5644 11.7213 11.849 11.8328 12.1763C11.9443 12.5037 12 12.8534 12 13.2254Z" fill="#F2F2F2"/>
</svg>
