<svg width="18" height="16" viewBox="0 0 18 16" fill="none" xmlns="http://www.w3.org/2000/svg">
<path d="M0 7.99998L4.49956 11.5551V8.88877H12.5988V7.11119H4.49956V4.44482L0 7.99998Z" fill="#ABABAB"/>
<path d="M9.89989 3.05398e-05C8.83577 -0.00288353 7.78164 0.202773 6.79857 0.605085C5.81549 1.0074 4.92302 1.59837 4.17285 2.34377L5.44533 3.60051C6.63501 2.42553 8.21705 1.77761 9.89989 1.77761C11.5827 1.77761 13.1648 2.42553 14.3545 3.60051C15.5441 4.77549 16.2002 6.33798 16.2002 8.00002C16.2002 9.66205 15.5441 11.2245 14.3545 12.3995C13.1648 13.5745 11.5827 14.2224 9.89989 14.2224C8.21705 14.2224 6.63501 13.5745 5.44533 12.3995L4.17285 13.6563C5.7018 15.1672 7.7356 16 9.89989 16C12.0642 16 14.098 15.1672 15.6269 13.6563C17.1568 12.1462 18 10.1376 18 8.00002C18 5.86248 17.1568 3.85382 15.6269 2.34377C14.8768 1.59837 13.9843 1.0074 13.0012 0.605085C12.0181 0.202773 10.964 -0.00288353 9.89989 3.05398e-05Z" fill="#ABABAB"/>
</svg>
